<svg width="3250" height="621" viewBox="0 0 3250 621" fill="none" xmlns="http://www.w3.org/2000/svg">
<path d="M424 120L76.6326 595H50L396.414 120H424Z" fill="black" stroke="black" stroke-width="50"/>
<path d="M580 369.622L565.539 390.366L504.162 180.664L204.955 595H180L512.019 135L580 369.622Z" fill="black" stroke="#CC0000" stroke-width="50"/>
<path d="M849.091 595.5H829.091V207.562L548.591 594.904H523L849.091 143.5V595.5Z" fill="#CC0000" stroke="black" stroke-width="50"/>
<mask id="path-4-outside-1_15_62" maskUnits="userSpaceOnUse" x="969" y="88" width="2281" height="305" fill="black">
<rect fill="white" x="969" y="88" width="2281" height="305"/>
<path d="M980.37 377V104H1032.63L1148.85 296.66H1121.16L1235.43 104H1287.3L1288.08 377H1228.8L1228.41 194.87H1239.33L1148.07 348.14H1119.6L1026.39 194.87H1039.65V377H980.37ZM1410.96 213.98H1542.39V263.12H1410.96V213.98ZM1415.64 326.3H1564.23V377H1352.85V104H1559.16V154.7H1415.64V326.3ZM1614.5 377V104H1732.67C1757.11 104 1778.17 108.03 1795.85 116.09C1813.53 123.89 1827.18 135.2 1836.8 150.02C1846.42 164.84 1851.23 182.52 1851.23 203.06C1851.23 223.34 1846.42 240.89 1836.8 255.71C1827.18 270.27 1813.53 281.45 1795.85 289.25C1778.17 297.05 1757.11 300.95 1732.67 300.95H1649.6L1677.68 273.26V377H1614.5ZM1788.05 377L1719.8 277.94H1787.27L1856.3 377H1788.05ZM1677.68 280.28L1649.6 250.64H1729.16C1748.66 250.64 1763.22 246.48 1772.84 238.16C1782.46 229.58 1787.27 217.88 1787.27 203.06C1787.27 187.98 1782.46 176.28 1772.84 167.96C1763.22 159.64 1748.66 155.48 1729.16 155.48H1649.6L1677.68 125.45V280.28ZM2031.94 381.68C2010.88 381.68 1991.25 378.3 1973.05 371.54C1955.11 364.52 1939.51 354.64 1926.25 341.9C1912.99 329.16 1902.59 314.21 1895.05 297.05C1887.77 279.89 1884.13 261.04 1884.13 240.5C1884.13 219.96 1887.77 201.11 1895.05 183.95C1902.59 166.79 1912.99 151.84 1926.25 139.1C1939.77 126.36 1955.5 116.61 1973.44 109.85C1991.38 102.83 2011.01 99.32 2032.33 99.32C2055.99 99.32 2077.31 103.48 2096.29 111.8C2115.53 119.86 2131.65 131.82 2144.65 147.68L2104.09 185.12C2094.73 174.46 2084.33 166.53 2072.89 161.33C2061.45 155.87 2048.97 153.14 2035.45 153.14C2022.71 153.14 2011.01 155.22 2000.35 159.38C1989.69 163.54 1980.46 169.52 1972.66 177.32C1964.86 185.12 1958.75 194.35 1954.33 205.01C1950.17 215.67 1948.09 227.5 1948.09 240.5C1948.09 253.5 1950.17 265.33 1954.33 275.99C1958.75 286.65 1964.86 295.88 1972.66 303.68C1980.46 311.48 1989.69 317.46 2000.35 321.62C2011.01 325.78 2022.71 327.86 2035.45 327.86C2048.97 327.86 2061.45 325.26 2072.89 320.06C2084.33 314.6 2094.73 306.41 2104.09 295.49L2144.65 332.93C2131.65 348.79 2115.53 360.88 2096.29 369.2C2077.31 377.52 2055.86 381.68 2031.94 381.68ZM2245.42 213.98H2376.85V263.12H2245.42V213.98ZM2250.1 326.3H2398.69V377H2187.31V104H2393.62V154.7H2250.1V326.3ZM2448.96 377V104H2572.98C2602.62 104 2628.75 109.72 2651.37 121.16C2673.99 132.34 2691.67 148.07 2704.41 168.35C2717.15 188.63 2723.52 212.68 2723.52 240.5C2723.52 268.06 2717.15 292.11 2704.41 312.65C2691.67 332.93 2673.99 348.79 2651.37 360.23C2628.75 371.41 2602.62 377 2572.98 377H2448.96ZM2512.14 325.13H2569.86C2588.06 325.13 2603.79 321.75 2617.05 314.99C2630.57 307.97 2640.97 298.09 2648.25 285.35C2655.79 272.61 2659.56 257.66 2659.56 240.5C2659.56 223.08 2655.79 208.13 2648.25 195.65C2640.97 182.91 2630.57 173.16 2617.05 166.4C2603.79 159.38 2588.06 155.87 2569.86 155.87H2512.14V325.13ZM2829.28 213.98H2960.71V263.12H2829.28V213.98ZM2833.96 326.3H2982.55V377H2771.17V104H2977.48V154.7H2833.96V326.3ZM3122.52 381.68C3100.68 381.68 3079.75 378.82 3059.73 373.1C3039.71 367.12 3023.59 359.45 3011.37 350.09L3032.82 302.51C3044.52 310.83 3058.3 317.72 3074.16 323.18C3090.28 328.38 3106.53 330.98 3122.91 330.98C3135.39 330.98 3145.4 329.81 3152.94 327.47C3160.74 324.87 3166.46 321.36 3170.1 316.94C3173.74 312.52 3175.56 307.45 3175.56 301.73C3175.56 294.45 3172.7 288.73 3166.98 284.57C3161.26 280.15 3153.72 276.64 3144.36 274.04C3135 271.18 3124.6 268.58 3113.16 266.24C3101.98 263.64 3090.67 260.52 3079.23 256.88C3068.05 253.24 3057.78 248.56 3048.42 242.84C3039.06 237.12 3031.39 229.58 3025.41 220.22C3019.69 210.86 3016.83 198.9 3016.83 184.34C3016.83 168.74 3020.99 154.57 3029.31 141.83C3037.89 128.83 3050.63 118.56 3067.53 111.02C3084.69 103.22 3106.14 99.32 3131.88 99.32C3149.04 99.32 3165.94 101.4 3182.58 105.56C3199.22 109.46 3213.91 115.44 3226.65 123.5L3207.15 171.47C3194.41 164.19 3181.67 158.86 3168.93 155.48C3156.19 151.84 3143.71 150.02 3131.49 150.02C3119.27 150.02 3109.26 151.45 3101.46 154.31C3093.66 157.17 3088.07 160.94 3084.69 165.62C3081.31 170.04 3079.62 175.24 3079.62 181.22C3079.62 188.24 3082.48 193.96 3088.2 198.38C3093.92 202.54 3101.46 205.92 3110.82 208.52C3120.18 211.12 3130.45 213.72 3141.63 216.32C3153.07 218.92 3164.38 221.91 3175.56 225.29C3187 228.67 3197.4 233.22 3206.76 238.94C3216.12 244.66 3223.66 252.2 3229.38 261.56C3235.36 270.92 3238.35 282.75 3238.35 297.05C3238.35 312.39 3234.06 326.43 3225.48 339.17C3216.9 351.91 3204.03 362.18 3186.87 369.98C3169.97 377.78 3148.52 381.68 3122.52 381.68Z"/>
</mask>
<path d="M980.37 377V104H1032.63L1148.85 296.66H1121.16L1235.43 104H1287.3L1288.08 377H1228.8L1228.41 194.87H1239.33L1148.07 348.14H1119.6L1026.39 194.87H1039.65V377H980.37ZM1410.96 213.98H1542.39V263.12H1410.96V213.98ZM1415.64 326.3H1564.23V377H1352.85V104H1559.16V154.7H1415.64V326.3ZM1614.5 377V104H1732.67C1757.11 104 1778.17 108.03 1795.85 116.09C1813.53 123.89 1827.18 135.2 1836.8 150.02C1846.42 164.84 1851.23 182.52 1851.23 203.06C1851.23 223.34 1846.42 240.89 1836.8 255.71C1827.18 270.27 1813.53 281.45 1795.85 289.25C1778.17 297.05 1757.11 300.95 1732.67 300.95H1649.6L1677.68 273.26V377H1614.5ZM1788.05 377L1719.8 277.94H1787.27L1856.3 377H1788.05ZM1677.68 280.28L1649.6 250.64H1729.16C1748.66 250.64 1763.22 246.48 1772.84 238.16C1782.46 229.58 1787.27 217.88 1787.27 203.06C1787.27 187.98 1782.46 176.28 1772.84 167.96C1763.22 159.64 1748.66 155.48 1729.16 155.48H1649.6L1677.68 125.45V280.28ZM2031.94 381.68C2010.88 381.68 1991.25 378.3 1973.05 371.54C1955.11 364.52 1939.51 354.64 1926.25 341.9C1912.99 329.16 1902.59 314.21 1895.05 297.05C1887.77 279.89 1884.13 261.04 1884.13 240.5C1884.13 219.96 1887.77 201.11 1895.05 183.95C1902.59 166.79 1912.99 151.84 1926.25 139.1C1939.77 126.36 1955.5 116.61 1973.44 109.85C1991.38 102.83 2011.01 99.32 2032.33 99.32C2055.99 99.32 2077.31 103.48 2096.29 111.8C2115.53 119.86 2131.65 131.82 2144.65 147.68L2104.09 185.12C2094.73 174.46 2084.33 166.53 2072.89 161.33C2061.45 155.87 2048.97 153.14 2035.45 153.14C2022.71 153.14 2011.01 155.22 2000.35 159.38C1989.69 163.54 1980.46 169.52 1972.66 177.32C1964.86 185.12 1958.75 194.35 1954.33 205.01C1950.17 215.67 1948.09 227.5 1948.09 240.5C1948.09 253.5 1950.17 265.33 1954.33 275.99C1958.75 286.65 1964.86 295.88 1972.66 303.68C1980.46 311.48 1989.69 317.46 2000.35 321.62C2011.01 325.78 2022.71 327.86 2035.45 327.86C2048.97 327.86 2061.45 325.26 2072.89 320.06C2084.33 314.6 2094.73 306.41 2104.09 295.49L2144.65 332.93C2131.65 348.79 2115.53 360.88 2096.29 369.2C2077.31 377.52 2055.86 381.68 2031.94 381.68ZM2245.42 213.98H2376.85V263.12H2245.42V213.98ZM2250.1 326.3H2398.69V377H2187.31V104H2393.62V154.7H2250.1V326.3ZM2448.96 377V104H2572.98C2602.62 104 2628.75 109.72 2651.37 121.16C2673.99 132.34 2691.67 148.07 2704.41 168.35C2717.15 188.63 2723.52 212.68 2723.52 240.5C2723.52 268.06 2717.15 292.11 2704.41 312.65C2691.67 332.93 2673.99 348.79 2651.37 360.23C2628.75 371.41 2602.62 377 2572.98 377H2448.96ZM2512.14 325.13H2569.86C2588.06 325.13 2603.79 321.75 2617.05 314.99C2630.57 307.97 2640.97 298.09 2648.25 285.35C2655.79 272.61 2659.56 257.66 2659.56 240.5C2659.56 223.08 2655.79 208.13 2648.25 195.65C2640.97 182.91 2630.57 173.16 2617.05 166.4C2603.79 159.38 2588.06 155.87 2569.86 155.87H2512.14V325.13ZM2829.28 213.98H2960.71V263.12H2829.28V213.98ZM2833.96 326.3H2982.55V377H2771.17V104H2977.48V154.7H2833.96V326.3ZM3122.52 381.68C3100.68 381.68 3079.75 378.82 3059.73 373.1C3039.71 367.12 3023.59 359.45 3011.37 350.09L3032.82 302.51C3044.52 310.83 3058.3 317.72 3074.16 323.18C3090.28 328.38 3106.53 330.98 3122.91 330.98C3135.39 330.98 3145.4 329.81 3152.94 327.47C3160.74 324.87 3166.46 321.36 3170.1 316.94C3173.74 312.52 3175.56 307.45 3175.56 301.73C3175.56 294.45 3172.7 288.73 3166.98 284.57C3161.26 280.15 3153.72 276.64 3144.36 274.04C3135 271.18 3124.6 268.58 3113.16 266.24C3101.98 263.64 3090.67 260.52 3079.23 256.88C3068.05 253.24 3057.78 248.56 3048.42 242.84C3039.06 237.12 3031.39 229.58 3025.41 220.22C3019.69 210.86 3016.83 198.9 3016.83 184.34C3016.83 168.74 3020.99 154.57 3029.31 141.83C3037.89 128.83 3050.63 118.56 3067.53 111.02C3084.69 103.22 3106.14 99.32 3131.88 99.32C3149.04 99.32 3165.94 101.4 3182.58 105.56C3199.22 109.46 3213.91 115.44 3226.65 123.5L3207.15 171.47C3194.41 164.19 3181.67 158.86 3168.93 155.48C3156.19 151.84 3143.71 150.02 3131.49 150.02C3119.27 150.02 3109.26 151.45 3101.46 154.31C3093.66 157.17 3088.07 160.94 3084.69 165.62C3081.31 170.04 3079.62 175.24 3079.62 181.22C3079.62 188.24 3082.48 193.96 3088.2 198.38C3093.92 202.54 3101.46 205.92 3110.82 208.52C3120.18 211.12 3130.45 213.72 3141.63 216.32C3153.07 218.92 3164.38 221.91 3175.56 225.29C3187 228.67 3197.4 233.22 3206.76 238.94C3216.12 244.66 3223.66 252.2 3229.38 261.56C3235.36 270.92 3238.35 282.75 3238.35 297.05C3238.35 312.39 3234.06 326.43 3225.48 339.17C3216.9 351.91 3204.03 362.18 3186.87 369.98C3169.97 377.78 3148.52 381.68 3122.52 381.68Z" fill="#CC0000"/>
<path d="M980.37 377H969.37V388H980.37V377ZM980.37 104V93H969.37V104H980.37ZM1032.63 104L1042.05 98.3181L1038.84 93H1032.63V104ZM1148.85 296.66V307.66H1168.33L1158.27 290.978L1148.85 296.66ZM1121.16 296.66L1111.7 291.048L1101.85 307.66H1121.16V296.66ZM1235.43 104V93H1229.17L1225.97 98.3885L1235.43 104ZM1287.3 104L1298.3 103.969L1298.27 93H1287.3V104ZM1288.08 377V388H1299.11L1299.08 376.969L1288.08 377ZM1228.8 377L1217.8 377.024L1217.82 388H1228.8V377ZM1228.41 194.87V183.87H1217.39L1217.41 194.894L1228.41 194.87ZM1239.33 194.87L1248.78 200.498L1258.68 183.87H1239.33V194.87ZM1148.07 348.14V359.14H1154.32L1157.52 353.768L1148.07 348.14ZM1119.6 348.14L1110.2 353.856L1113.42 359.14H1119.6V348.14ZM1026.39 194.87V183.87H1006.83L1016.99 200.586L1026.39 194.87ZM1039.65 194.87H1050.65V183.87H1039.65V194.87ZM1039.65 377V388H1050.65V377H1039.65ZM980.37 377H991.37V104H980.37H969.37V377H980.37ZM980.37 104V115H1032.63V104V93H980.37V104ZM1032.63 104L1023.21 109.682L1139.43 302.342L1148.85 296.66L1158.27 290.978L1042.05 98.3181L1032.63 104ZM1148.85 296.66V285.66H1121.16V296.66V307.66H1148.85V296.66ZM1121.16 296.66L1130.62 302.271L1244.89 109.611L1235.43 104L1225.97 98.3885L1111.7 291.048L1121.16 296.66ZM1235.43 104V115H1287.3V104V93H1235.43V104ZM1287.3 104L1276.3 104.031L1277.08 377.031L1288.08 377L1299.08 376.969L1298.3 103.969L1287.3 104ZM1288.08 377V366H1228.8V377V388H1288.08V377ZM1228.8 377L1239.8 376.976L1239.41 194.846L1228.41 194.87L1217.41 194.894L1217.8 377.024L1228.8 377ZM1228.41 194.87V205.87H1239.33V194.87V183.87H1228.41V194.87ZM1239.33 194.87L1229.88 189.242L1138.62 342.512L1148.07 348.14L1157.52 353.768L1248.78 200.498L1239.33 194.87ZM1148.07 348.14V337.14H1119.6V348.14V359.14H1148.07V348.14ZM1119.6 348.14L1129 342.424L1035.79 189.154L1026.39 194.87L1016.99 200.586L1110.2 353.856L1119.6 348.14ZM1026.39 194.87V205.87H1039.65V194.87V183.87H1026.39V194.87ZM1039.65 194.87H1028.65V377H1039.65H1050.65V194.87H1039.65ZM1039.65 377V366H980.37V377V388H1039.65V377ZM1410.96 213.98V202.98H1399.96V213.98H1410.96ZM1542.39 213.98H1553.39V202.98H1542.39V213.98ZM1542.39 263.12V274.12H1553.39V263.12H1542.39ZM1410.96 263.12H1399.96V274.12H1410.96V263.12ZM1415.64 326.3H1404.64V337.3H1415.64V326.3ZM1564.23 326.3H1575.23V315.3H1564.23V326.3ZM1564.23 377V388H1575.23V377H1564.23ZM1352.85 377H1341.85V388H1352.85V377ZM1352.85 104V93H1341.85V104H1352.85ZM1559.16 104H1570.16V93H1559.16V104ZM1559.16 154.7V165.7H1570.16V154.7H1559.16ZM1415.64 154.7V143.7H1404.64V154.7H1415.64ZM1410.96 213.98V224.98H1542.39V213.98V202.98H1410.96V213.98ZM1542.39 213.98H1531.39V263.12H1542.39H1553.39V213.98H1542.39ZM1542.39 263.12V252.12H1410.96V263.12V274.12H1542.39V263.12ZM1410.96 263.12H1421.96V213.98H1410.96H1399.96V263.12H1410.96ZM1415.64 326.3V337.3H1564.23V326.3V315.3H1415.64V326.3ZM1564.23 326.3H1553.23V377H1564.23H1575.23V326.3H1564.23ZM1564.23 377V366H1352.85V377V388H1564.23V377ZM1352.85 377H1363.85V104H1352.85H1341.85V377H1352.85ZM1352.85 104V115H1559.16V104V93H1352.85V104ZM1559.16 104H1548.16V154.7H1559.16H1570.16V104H1559.16ZM1559.16 154.7V143.7H1415.64V154.7V165.7H1559.16V154.7ZM1415.64 154.7H1404.64V326.3H1415.64H1426.64V154.7H1415.64ZM1614.5 377H1603.5V388H1614.5V377ZM1614.5 104V93H1603.5V104H1614.5ZM1795.85 116.09L1791.29 126.099L1791.35 126.127L1791.41 126.154L1795.85 116.09ZM1836.8 150.02L1827.57 156.009L1827.57 156.009L1836.8 150.02ZM1836.8 255.71L1845.98 261.774L1846 261.737L1846.03 261.699L1836.8 255.71ZM1795.85 289.25L1800.29 299.314L1800.29 299.314L1795.85 289.25ZM1649.6 300.95L1641.88 293.118L1622.78 311.95H1649.6V300.95ZM1677.68 273.26H1688.68V246.964L1669.96 265.428L1677.68 273.26ZM1677.68 377V388H1688.68V377H1677.68ZM1788.05 377L1778.99 383.241L1782.27 388H1788.05V377ZM1719.8 277.94V266.94H1698.86L1710.74 284.181L1719.8 277.94ZM1787.27 277.94L1796.3 271.651L1793.01 266.94H1787.27V277.94ZM1856.3 377V388H1877.37L1865.33 370.711L1856.3 377ZM1677.68 280.28L1669.7 287.845L1688.68 307.885V280.28H1677.68ZM1649.6 250.64V239.64H1624.03L1641.62 258.205L1649.6 250.64ZM1772.84 238.16L1780.04 246.48L1780.1 246.425L1780.16 246.369L1772.84 238.16ZM1649.6 155.48L1641.57 147.967L1624.26 166.48H1649.6V155.48ZM1677.68 125.45H1688.68V97.5805L1669.65 117.937L1677.68 125.45ZM1614.5 377H1625.5V104H1614.5H1603.5V377H1614.5ZM1614.5 104V115H1732.67V104V93H1614.5V104ZM1732.67 104V115C1755.93 115 1775.36 118.838 1791.29 126.099L1795.85 116.09L1800.41 106.081C1780.98 97.2224 1758.29 93 1732.67 93V104ZM1795.85 116.09L1791.41 126.154C1807.32 133.175 1819.23 143.152 1827.57 156.009L1836.8 150.02L1846.03 144.031C1835.13 127.248 1819.74 114.605 1800.29 106.026L1795.85 116.09ZM1836.8 150.02L1827.57 156.009C1835.86 168.771 1840.23 184.293 1840.23 203.06H1851.23H1862.23C1862.23 180.747 1856.98 160.909 1846.03 144.031L1836.8 150.02ZM1851.23 203.06H1840.23C1840.23 221.537 1835.87 236.936 1827.57 249.721L1836.8 255.71L1846.03 261.699C1856.97 244.844 1862.23 225.143 1862.23 203.06H1851.23ZM1836.8 255.71L1827.62 249.646C1819.29 262.26 1807.38 272.143 1791.41 279.186L1795.85 289.25L1800.29 299.314C1819.69 290.757 1835.07 278.28 1845.98 261.774L1836.8 255.71ZM1795.85 289.25L1791.41 279.186C1775.45 286.228 1755.97 289.95 1732.67 289.95V300.95V311.95C1758.25 311.95 1780.89 307.872 1800.29 299.314L1795.85 289.25ZM1732.67 300.95V289.95H1649.6V300.95V311.95H1732.67V300.95ZM1649.6 300.95L1657.32 308.782L1685.4 281.092L1677.68 273.26L1669.96 265.428L1641.88 293.118L1649.6 300.95ZM1677.68 273.26H1666.68V377H1677.68H1688.68V273.26H1677.68ZM1677.68 377V366H1614.5V377V388H1677.68V377ZM1788.05 377L1797.11 370.759L1728.86 271.699L1719.8 277.94L1710.74 284.181L1778.99 383.241L1788.05 377ZM1719.8 277.94V288.94H1787.27V277.94V266.94H1719.8V277.94ZM1787.27 277.94L1778.25 284.229L1847.28 383.289L1856.3 377L1865.33 370.711L1796.3 271.651L1787.27 277.94ZM1856.3 377V366H1788.05V377V388H1856.3V377ZM1677.68 280.28L1685.67 272.715L1657.59 243.075L1649.6 250.64L1641.62 258.205L1669.7 287.845L1677.68 280.28ZM1649.6 250.64V261.64H1729.16V250.64V239.64H1649.6V250.64ZM1729.16 250.64V261.64C1749.95 261.64 1767.59 257.245 1780.04 246.48L1772.84 238.16L1765.65 229.84C1758.85 235.715 1747.37 239.64 1729.16 239.64V250.64ZM1772.84 238.16L1780.16 246.369C1792.48 235.38 1798.27 220.497 1798.27 203.06H1787.27H1776.27C1776.27 215.263 1772.44 223.78 1765.52 229.951L1772.84 238.16ZM1787.27 203.06H1798.27C1798.27 185.438 1792.53 170.442 1780.04 159.64L1772.84 167.96L1765.65 176.28C1772.4 182.118 1776.27 190.522 1776.27 203.06H1787.27ZM1772.84 167.96L1780.04 159.64C1767.59 148.875 1749.95 144.48 1729.16 144.48V155.48V166.48C1747.37 166.48 1758.85 170.405 1765.65 176.28L1772.84 167.96ZM1729.16 155.48V144.48H1649.6V155.48V166.48H1729.16V155.48ZM1649.6 155.48L1657.64 162.993L1685.72 132.963L1677.68 125.45L1669.65 117.937L1641.57 147.967L1649.6 155.48ZM1677.68 125.45H1666.68V280.28H1677.68H1688.68V125.45H1677.68ZM1973.05 371.54L1969.04 381.784L1969.13 381.818L1969.22 381.852L1973.05 371.54ZM1926.25 341.9L1918.63 349.832L1918.63 349.832L1926.25 341.9ZM1895.05 297.05L1884.92 301.346L1884.95 301.411L1884.98 301.475L1895.05 297.05ZM1895.05 183.95L1884.98 179.525L1884.95 179.589L1884.92 179.654L1895.05 183.95ZM1926.25 139.1L1918.7 131.094L1918.67 131.131L1918.63 131.168L1926.25 139.1ZM1973.44 109.85L1977.32 120.143L1977.38 120.119L1977.45 120.094L1973.44 109.85ZM2096.29 111.8L2091.87 121.875L2091.95 121.911L2092.04 121.946L2096.29 111.8ZM2144.65 147.68L2152.11 155.763L2159.73 148.728L2153.16 140.707L2144.65 147.68ZM2104.09 185.12L2095.82 192.378L2103.26 200.852L2111.55 193.203L2104.09 185.12ZM2072.89 161.33L2068.15 171.257L2068.24 171.302L2068.34 171.344L2072.89 161.33ZM1972.66 177.32L1980.44 185.098L1980.44 185.098L1972.66 177.32ZM1954.33 205.01L1944.17 200.797L1944.12 200.903L1944.08 201.011L1954.33 205.01ZM1954.33 275.99L1944.08 279.989L1944.12 280.097L1944.17 280.203L1954.33 275.99ZM1972.66 303.68L1964.88 311.458L1964.88 311.458L1972.66 303.68ZM2072.89 320.06L2077.44 330.074L2077.53 330.032L2077.63 329.987L2072.89 320.06ZM2104.09 295.49L2111.55 287.407L2103.16 279.666L2095.74 288.331L2104.09 295.49ZM2144.65 332.93L2153.16 339.903L2159.73 331.882L2152.11 324.847L2144.65 332.93ZM2096.29 369.2L2091.92 359.104L2091.9 359.114L2091.87 359.125L2096.29 369.2ZM2031.94 381.68V370.68C2012.07 370.68 1993.75 367.496 1976.88 361.228L1973.05 371.54L1969.22 381.852C1988.74 389.104 2009.68 392.68 2031.94 392.68V381.68ZM1973.05 371.54L1977.06 361.296C1960.4 354.777 1946.04 345.66 1933.87 333.968L1926.25 341.9L1918.63 349.832C1932.98 363.62 1949.82 374.263 1969.04 381.784L1973.05 371.54ZM1926.25 341.9L1933.87 333.968C1921.67 322.245 1912.09 308.493 1905.12 292.625L1895.05 297.05L1884.98 301.475C1893.08 319.927 1904.31 336.075 1918.63 349.832L1926.25 341.9ZM1895.05 297.05L1905.17 292.754C1898.53 277.085 1895.13 259.715 1895.13 240.5H1884.13H1873.13C1873.13 262.365 1877.01 282.695 1884.92 301.346L1895.05 297.05ZM1884.13 240.5H1895.13C1895.13 221.285 1898.53 203.915 1905.17 188.246L1895.05 183.95L1884.92 179.654C1877.01 198.305 1873.13 218.635 1873.13 240.5H1884.13ZM1895.05 183.95L1905.12 188.375C1912.09 172.507 1921.67 158.755 1933.87 147.032L1926.25 139.1L1918.63 131.168C1904.31 144.925 1893.08 161.073 1884.98 179.525L1895.05 183.95ZM1926.25 139.1L1933.79 147.106C1946.22 135.395 1960.69 126.407 1977.32 120.143L1973.44 109.85L1969.56 99.5565C1950.3 106.813 1933.32 117.325 1918.7 131.094L1926.25 139.1ZM1973.44 109.85L1977.45 120.094C1993.98 113.624 2012.23 110.32 2032.33 110.32V99.32V88.32C2009.78 88.32 1988.78 92.0359 1969.43 99.6063L1973.44 109.85ZM2032.33 99.32V110.32C2054.68 110.32 2074.47 114.246 2091.87 121.875L2096.29 111.8L2100.7 101.725C2080.15 92.7145 2057.29 88.32 2032.33 88.32V99.32ZM2096.29 111.8L2092.04 121.946C2109.65 129.324 2124.3 140.207 2136.14 154.653L2144.65 147.68L2153.16 140.707C2139 123.433 2121.41 110.396 2100.54 101.654L2096.29 111.8ZM2144.65 147.68L2137.19 139.597L2096.63 177.037L2104.09 185.12L2111.55 193.203L2152.11 155.763L2144.65 147.68ZM2104.09 185.12L2112.35 177.862C2102.1 166.182 2090.47 157.239 2077.44 151.316L2072.89 161.33L2068.34 171.344C2078.18 175.82 2087.36 182.738 2095.82 192.378L2104.09 185.12ZM2072.89 161.33L2077.63 151.403C2064.61 145.19 2050.5 142.14 2035.45 142.14V153.14V164.14C2047.44 164.14 2058.29 166.55 2068.15 171.257L2072.89 161.33ZM2035.45 153.14V142.14C2021.49 142.14 2008.42 144.422 1996.35 149.133L2000.35 159.38L2004.35 169.627C2013.6 166.018 2023.92 164.14 2035.45 164.14V153.14ZM2000.35 159.38L1996.35 149.133C1984.33 153.824 1973.8 160.626 1964.88 169.542L1972.66 177.32L1980.44 185.098C1987.12 178.414 1995.05 173.256 2004.35 169.627L2000.35 159.38ZM1972.66 177.32L1964.88 169.542C1956.01 178.409 1949.11 188.866 1944.17 200.797L1954.33 205.01L1964.49 209.223C1968.38 199.834 1973.7 191.831 1980.44 185.098L1972.66 177.32ZM1954.33 205.01L1944.08 201.011C1939.36 213.107 1937.09 226.316 1937.09 240.5H1948.09H1959.09C1959.09 228.684 1960.98 218.233 1964.58 209.009L1954.33 205.01ZM1948.09 240.5H1937.09C1937.09 254.684 1939.36 267.893 1944.08 279.989L1954.33 275.99L1964.58 271.991C1960.98 262.767 1959.09 252.316 1959.09 240.5H1948.09ZM1954.33 275.99L1944.17 280.203C1949.11 292.134 1956.01 302.591 1964.88 311.458L1972.66 303.68L1980.44 295.902C1973.7 289.169 1968.38 281.166 1964.49 271.777L1954.33 275.99ZM1972.66 303.68L1964.88 311.458C1973.8 320.374 1984.33 327.176 1996.35 331.867L2000.35 321.62L2004.35 311.373C1995.05 307.744 1987.12 302.586 1980.44 295.902L1972.66 303.68ZM2000.35 321.62L1996.35 331.867C2008.42 336.578 2021.49 338.86 2035.45 338.86V327.86V316.86C2023.92 316.86 2013.6 314.982 2004.35 311.373L2000.35 321.62ZM2035.45 327.86V338.86C2050.42 338.86 2064.46 335.972 2077.44 330.074L2072.89 320.06L2068.34 310.046C2058.43 314.548 2047.52 316.86 2035.45 316.86V327.86ZM2072.89 320.06L2077.63 329.987C2090.63 323.783 2102.22 314.577 2112.44 302.649L2104.09 295.49L2095.74 288.331C2087.24 298.243 2078.03 305.417 2068.15 310.133L2072.89 320.06ZM2104.09 295.49L2096.63 303.573L2137.19 341.013L2144.65 332.93L2152.11 324.847L2111.55 287.407L2104.09 295.49ZM2144.65 332.93L2136.14 325.957C2124.28 340.43 2109.59 351.464 2091.92 359.104L2096.29 369.2L2100.65 379.296C2121.47 370.296 2139.02 357.15 2153.16 339.903L2144.65 332.93ZM2096.29 369.2L2091.87 359.125C2074.48 366.748 2054.57 370.68 2031.94 370.68V381.68V392.68C2057.15 392.68 2080.13 388.292 2100.7 379.275L2096.29 369.2ZM2245.42 213.98V202.98H2234.42V213.98H2245.42ZM2376.85 213.98H2387.85V202.98H2376.85V213.98ZM2376.85 263.12V274.12H2387.85V263.12H2376.85ZM2245.42 263.12H2234.42V274.12H2245.42V263.12ZM2250.1 326.3H2239.1V337.3H2250.1V326.3ZM2398.69 326.3H2409.69V315.3H2398.69V326.3ZM2398.69 377V388H2409.69V377H2398.69ZM2187.31 377H2176.31V388H2187.31V377ZM2187.31 104V93H2176.31V104H2187.31ZM2393.62 104H2404.62V93H2393.62V104ZM2393.62 154.7V165.7H2404.62V154.7H2393.62ZM2250.1 154.7V143.7H2239.1V154.7H2250.1ZM2245.42 213.98V224.98H2376.85V213.98V202.98H2245.42V213.98ZM2376.85 213.98H2365.85V263.12H2376.85H2387.85V213.98H2376.85ZM2376.85 263.12V252.12H2245.42V263.12V274.12H2376.85V263.12ZM2245.42 263.12H2256.42V213.98H2245.42H2234.42V263.12H2245.42ZM2250.1 326.3V337.3H2398.69V326.3V315.3H2250.1V326.3ZM2398.69 326.3H2387.69V377H2398.69H2409.69V326.3H2398.69ZM2398.69 377V366H2187.31V377V388H2398.69V377ZM2187.31 377H2198.31V104H2187.31H2176.31V377H2187.31ZM2187.31 104V115H2393.62V104V93H2187.31V104ZM2393.62 104H2382.62V154.7H2393.62H2404.62V104H2393.62ZM2393.62 154.7V143.7H2250.1V154.7V165.7H2393.62V154.7ZM2250.1 154.7H2239.1V326.3H2250.1H2261.1V154.7H2250.1ZM2448.96 377H2437.96V388H2448.96V377ZM2448.96 104V93H2437.96V104H2448.96ZM2651.37 121.16L2646.41 130.976L2646.45 130.999L2646.5 131.021L2651.37 121.16ZM2704.41 312.65L2713.73 318.501L2713.75 318.475L2713.76 318.448L2704.41 312.65ZM2651.37 360.23L2656.25 370.091L2656.29 370.069L2656.34 370.046L2651.37 360.23ZM2512.14 325.13H2501.14V336.13H2512.14V325.13ZM2617.05 314.99L2622.05 324.79L2622.09 324.771L2622.12 324.752L2617.05 314.99ZM2648.25 285.35L2638.79 279.747L2638.74 279.82L2638.7 279.892L2648.25 285.35ZM2648.25 195.65L2638.7 201.108L2638.77 201.224L2638.84 201.338L2648.25 195.65ZM2617.05 166.4L2611.91 176.122L2612.02 176.181L2612.13 176.239L2617.05 166.4ZM2512.14 155.87V144.87H2501.14V155.87H2512.14ZM2448.96 377H2459.96V104H2448.96H2437.96V377H2448.96ZM2448.96 104V115H2572.98V104V93H2448.96V104ZM2572.98 104V115C2601.19 115 2625.57 120.436 2646.41 130.976L2651.37 121.16L2656.34 111.344C2631.94 99.0039 2604.06 93 2572.98 93V104ZM2651.37 121.16L2646.5 131.021C2667.4 141.351 2683.5 155.737 2695.1 174.201L2704.41 168.35L2713.73 162.499C2699.85 140.403 2680.59 123.329 2656.25 111.299L2651.37 121.16ZM2704.41 168.35L2695.1 174.201C2706.57 192.461 2712.52 214.409 2712.52 240.5H2723.52H2734.52C2734.52 210.951 2727.74 184.799 2713.73 162.499L2704.41 168.35ZM2723.52 240.5H2712.52C2712.52 266.305 2706.58 288.287 2695.07 306.852L2704.41 312.65L2713.76 318.448C2727.73 295.933 2734.52 269.815 2734.52 240.5H2723.52ZM2704.41 312.65L2695.1 306.799C2683.49 325.286 2667.35 339.821 2646.41 350.414L2651.37 360.23L2656.34 370.046C2680.63 357.759 2699.86 340.574 2713.73 318.501L2704.41 312.65ZM2651.37 360.23L2646.5 350.369C2625.64 360.679 2601.23 366 2572.98 366V377V388C2604.02 388 2631.87 382.141 2656.25 370.091L2651.37 360.23ZM2572.98 377V366H2448.96V377V388H2572.98V377ZM2512.14 325.13V336.13H2569.86V325.13V314.13H2512.14V325.13ZM2569.86 325.13V336.13C2589.42 336.13 2606.94 332.495 2622.05 324.79L2617.05 314.99L2612.06 305.19C2600.65 311.005 2586.71 314.13 2569.86 314.13V325.13ZM2617.05 314.99L2622.12 324.752C2637.44 316.797 2649.43 305.456 2657.8 290.808L2648.25 285.35L2638.7 279.892C2632.51 290.724 2623.7 299.143 2611.98 305.228L2617.05 314.99ZM2648.25 285.35L2657.72 290.953C2666.41 276.262 2670.56 259.313 2670.56 240.5H2659.56H2648.56C2648.56 256.007 2645.17 268.958 2638.79 279.747L2648.25 285.35ZM2659.56 240.5H2670.56C2670.56 221.468 2666.43 204.466 2657.67 189.962L2648.25 195.65L2638.84 201.338C2645.16 211.794 2648.56 224.692 2648.56 240.5H2659.56ZM2648.25 195.65L2657.8 190.192C2649.41 175.508 2637.37 164.261 2621.97 156.561L2617.05 166.4L2612.13 176.239C2623.77 182.059 2632.53 190.312 2638.7 201.108L2648.25 195.65ZM2617.05 166.4L2622.2 156.678C2607.05 148.658 2589.48 144.87 2569.86 144.87V155.87V166.87C2586.65 166.87 2600.54 170.102 2611.91 176.122L2617.05 166.4ZM2569.86 155.87V144.87H2512.14V155.87V166.87H2569.86V155.87ZM2512.14 155.87H2501.14V325.13H2512.14H2523.14V155.87H2512.14ZM2829.28 213.98V202.98H2818.28V213.98H2829.28ZM2960.71 213.98H2971.71V202.98H2960.71V213.98ZM2960.71 263.12V274.12H2971.71V263.12H2960.71ZM2829.28 263.12H2818.28V274.12H2829.28V263.12ZM2833.96 326.3H2822.96V337.3H2833.96V326.3ZM2982.55 326.3H2993.55V315.3H2982.55V326.3ZM2982.55 377V388H2993.55V377H2982.55ZM2771.17 377H2760.17V388H2771.17V377ZM2771.17 104V93H2760.17V104H2771.17ZM2977.48 104H2988.48V93H2977.48V104ZM2977.48 154.7V165.7H2988.48V154.7H2977.48ZM2833.96 154.7V143.7H2822.96V154.7H2833.96ZM2829.28 213.98V224.98H2960.71V213.98V202.98H2829.28V213.98ZM2960.71 213.98H2949.71V263.12H2960.71H2971.71V213.98H2960.71ZM2960.71 263.12V252.12H2829.28V263.12V274.12H2960.71V263.12ZM2829.28 263.12H2840.28V213.98H2829.28H2818.28V263.12H2829.28ZM2833.96 326.3V337.3H2982.55V326.3V315.3H2833.96V326.3ZM2982.55 326.3H2971.55V377H2982.55H2993.55V326.3H2982.55ZM2982.55 377V366H2771.17V377V388H2982.55V377ZM2771.17 377H2782.17V104H2771.17H2760.17V377H2771.17ZM2771.17 104V115H2977.48V104V93H2771.17V104ZM2977.48 104H2966.48V154.7H2977.48H2988.48V104H2977.48ZM2977.48 154.7V143.7H2833.96V154.7V165.7H2977.48V154.7ZM2833.96 154.7H2822.96V326.3H2833.96H2844.96V154.7H2833.96ZM3059.73 373.1L3056.58 383.64L3056.65 383.659L3056.71 383.677L3059.73 373.1ZM3011.37 350.09L3001.34 345.569L2997.76 353.52L3004.68 358.823L3011.37 350.09ZM3032.82 302.51L3039.2 293.545L3028.29 285.792L3022.79 297.989L3032.82 302.51ZM3074.16 323.18L3070.58 333.581L3070.68 333.616L3070.78 333.649L3074.16 323.18ZM3152.94 327.47L3156.2 337.976L3156.31 337.942L3156.42 337.906L3152.94 327.47ZM3170.1 316.94L3161.61 309.947L3161.61 309.947L3170.1 316.94ZM3166.98 284.57L3160.26 293.274L3160.38 293.372L3160.51 293.466L3166.98 284.57ZM3144.36 274.04L3141.15 284.56L3141.28 284.601L3141.42 284.639L3144.36 274.04ZM3113.16 266.24L3110.67 276.954L3110.81 276.987L3110.96 277.017L3113.16 266.24ZM3079.23 256.88L3075.83 267.34L3075.86 267.351L3075.9 267.362L3079.23 256.88ZM3048.42 242.84L3042.69 252.226L3042.69 252.226L3048.42 242.84ZM3025.41 220.22L3016.03 225.956L3016.08 226.05L3016.14 226.142L3025.41 220.22ZM3029.31 141.83L3020.13 135.771L3020.12 135.793L3020.1 135.815L3029.31 141.83ZM3067.53 111.02L3072.01 121.066L3072.05 121.05L3072.08 121.034L3067.53 111.02ZM3182.58 105.56L3179.91 116.232L3179.99 116.251L3180.07 116.27L3182.58 105.56ZM3226.65 123.5L3236.84 127.642L3240.31 119.122L3232.53 114.204L3226.65 123.5ZM3207.15 171.47L3201.69 181.021L3212.61 187.257L3217.34 175.612L3207.15 171.47ZM3168.93 155.48L3165.91 166.057L3166.01 166.085L3166.11 166.112L3168.93 155.48ZM3101.46 154.31L3097.67 143.982L3097.67 143.982L3101.46 154.31ZM3084.69 165.62L3093.43 172.302L3093.52 172.182L3093.61 172.06L3084.69 165.62ZM3088.2 198.38L3081.48 207.084L3081.6 207.182L3081.73 207.276L3088.2 198.38ZM3110.82 208.52L3107.88 219.119L3107.88 219.119L3110.82 208.52ZM3141.63 216.32L3139.14 227.034L3139.17 227.04L3139.19 227.046L3141.63 216.32ZM3175.56 225.29L3172.38 235.819L3172.41 235.829L3172.44 235.839L3175.56 225.29ZM3206.76 238.94L3212.5 229.554L3212.5 229.554L3206.76 238.94ZM3229.38 261.56L3220 267.296L3220.05 267.39L3220.11 267.482L3229.38 261.56ZM3225.48 339.17L3234.6 345.315L3234.6 345.315L3225.48 339.17ZM3186.87 369.98L3182.32 359.966L3182.29 359.979L3182.26 359.992L3186.87 369.98ZM3122.52 381.68V370.68C3101.65 370.68 3081.74 367.949 3062.75 362.523L3059.73 373.1L3056.71 383.677C3077.76 389.691 3099.71 392.68 3122.52 392.68V381.68ZM3059.73 373.1L3062.88 362.56C3043.71 356.835 3028.91 349.672 3018.06 341.357L3011.37 350.09L3004.68 358.823C3018.27 369.228 3035.71 377.405 3056.58 383.64L3059.73 373.1ZM3011.37 350.09L3021.4 354.611L3042.85 307.031L3032.82 302.51L3022.79 297.989L3001.34 345.569L3011.37 350.09ZM3032.82 302.51L3026.45 311.475C3039.13 320.497 3053.89 327.834 3070.58 333.581L3074.16 323.18L3077.74 312.779C3062.71 307.606 3049.91 301.163 3039.2 293.545L3032.82 302.51ZM3074.16 323.18L3070.78 333.649C3087.96 339.189 3105.35 341.98 3122.91 341.98V330.98V319.98C3107.72 319.98 3092.6 317.571 3077.54 312.711L3074.16 323.18ZM3122.91 330.98V341.98C3135.93 341.98 3147.18 340.776 3156.2 337.976L3152.94 327.47L3149.68 316.964C3143.63 318.844 3134.85 319.98 3122.91 319.98V330.98ZM3152.94 327.47L3156.42 337.906C3165.37 334.922 3173.18 330.5 3178.59 323.933L3170.1 316.94L3161.61 309.947C3159.74 312.22 3156.11 314.818 3149.46 317.034L3152.94 327.47ZM3170.1 316.94L3178.59 323.933C3183.85 317.546 3186.56 310.004 3186.56 301.73H3175.56H3164.56C3164.56 304.896 3163.63 307.494 3161.61 309.947L3170.1 316.94ZM3175.56 301.73H3186.56C3186.56 291.053 3182.11 281.975 3173.45 275.674L3166.98 284.57L3160.51 293.466C3163.29 295.485 3164.56 297.847 3164.56 301.73H3175.56ZM3166.98 284.57L3173.71 275.866C3166.55 270.332 3157.59 266.299 3147.31 263.441L3144.36 274.04L3141.42 284.639C3149.85 286.981 3155.98 289.968 3160.26 293.274L3166.98 284.57ZM3144.36 274.04L3147.58 263.52C3137.83 260.541 3127.08 257.86 3115.37 255.463L3113.16 266.24L3110.96 277.017C3122.12 279.3 3132.18 281.819 3141.15 284.56L3144.36 274.04ZM3113.16 266.24L3115.65 255.526C3104.77 252.995 3093.74 249.953 3082.57 246.398L3079.23 256.88L3075.9 267.362C3087.6 271.087 3099.19 274.285 3110.67 276.954L3113.16 266.24ZM3079.23 256.88L3082.64 246.42C3072.21 243.027 3062.73 238.696 3054.16 233.454L3048.42 242.84L3042.69 252.226C3052.83 258.424 3063.89 263.453 3075.83 267.34L3079.23 256.88ZM3048.42 242.84L3054.16 233.454C3046.24 228.616 3039.77 222.268 3034.68 214.298L3025.41 220.22L3016.14 226.142C3023.01 236.892 3031.88 245.624 3042.69 252.226L3048.42 242.84ZM3025.41 220.22L3034.8 214.484C3030.42 207.329 3027.83 197.521 3027.83 184.34H3016.83H3005.83C3005.83 200.279 3008.96 214.391 3016.03 225.956L3025.41 220.22ZM3016.83 184.34H3027.83C3027.83 170.819 3031.4 158.749 3038.52 147.845L3029.31 141.83L3020.1 135.815C3010.58 150.391 3005.83 166.661 3005.83 184.34H3016.83ZM3029.31 141.83L3038.49 147.889C3045.72 136.944 3056.66 127.914 3072.01 121.066L3067.53 111.02L3063.05 100.974C3044.6 109.206 3030.07 120.715 3020.13 135.771L3029.31 141.83ZM3067.53 111.02L3072.08 121.034C3087.39 114.075 3107.17 110.32 3131.88 110.32V99.32V88.32C3105.11 88.32 3081.99 92.3645 3062.98 101.006L3067.53 111.02ZM3131.88 99.32V110.32C3148.14 110.32 3164.15 112.29 3179.91 116.232L3182.58 105.56L3185.25 94.8884C3167.74 90.5102 3149.94 88.32 3131.88 88.32V99.32ZM3182.58 105.56L3180.07 116.27C3195.67 119.927 3209.2 125.473 3220.77 132.796L3226.65 123.5L3232.53 114.204C3218.63 105.407 3202.77 98.9932 3185.09 94.8502L3182.58 105.56ZM3226.65 123.5L3216.46 119.358L3196.96 167.328L3207.15 171.47L3217.34 175.612L3236.84 127.642L3226.65 123.5ZM3207.15 171.47L3212.61 161.919C3199.13 154.219 3185.51 148.498 3171.75 144.848L3168.93 155.48L3166.11 166.112C3177.83 169.222 3189.69 174.161 3201.69 181.021L3207.15 171.47ZM3168.93 155.48L3171.95 144.903C3158.31 141.006 3144.82 139.02 3131.49 139.02V150.02V161.02C3142.61 161.02 3154.07 162.674 3165.91 166.057L3168.93 155.48ZM3131.49 150.02V139.02C3118.53 139.02 3107.12 140.521 3097.67 143.982L3101.46 154.31L3105.25 164.638C3111.41 162.379 3120.01 161.02 3131.49 161.02V150.02ZM3101.46 154.31L3097.67 143.982C3088.68 147.281 3080.89 152.099 3075.77 159.18L3084.69 165.62L3093.61 172.06C3095.25 169.781 3098.64 167.059 3105.25 164.638L3101.46 154.31ZM3084.69 165.62L3075.95 158.938C3070.99 165.424 3068.62 173.017 3068.62 181.22H3079.62H3090.62C3090.62 177.463 3091.63 174.656 3093.43 172.302L3084.69 165.62ZM3079.62 181.22H3068.62C3068.62 191.763 3073.15 200.654 3081.48 207.084L3088.2 198.38L3094.93 189.676C3091.81 187.266 3090.62 184.717 3090.62 181.22H3079.62ZM3088.2 198.38L3081.73 207.276C3088.83 212.44 3097.69 216.289 3107.88 219.119L3110.82 208.52L3113.77 197.921C3105.23 195.551 3099.01 192.64 3094.67 189.484L3088.2 198.38ZM3110.82 208.52L3107.88 219.119C3117.41 221.767 3127.83 224.405 3139.14 227.034L3141.63 216.32L3144.12 205.606C3133.07 203.035 3122.95 200.473 3113.77 197.921L3110.82 208.52ZM3141.63 216.32L3139.19 227.046C3150.38 229.59 3161.45 232.514 3172.38 235.819L3175.56 225.29L3178.74 214.761C3167.32 211.306 3155.76 208.25 3144.07 205.594L3141.63 216.32ZM3175.56 225.29L3172.44 235.839C3183.04 238.971 3192.55 243.148 3201.03 248.326L3206.76 238.94L3212.5 229.554C3202.25 223.292 3190.96 218.369 3178.68 214.741L3175.56 225.29ZM3206.76 238.94L3201.03 248.326C3208.9 253.136 3215.19 259.425 3220 267.296L3229.38 261.56L3238.77 255.824C3232.14 244.975 3223.35 236.184 3212.5 229.554L3206.76 238.94ZM3229.38 261.56L3220.11 267.482C3224.68 274.631 3227.35 284.253 3227.35 297.05H3238.35H3249.35C3249.35 281.247 3246.04 267.209 3238.65 255.638L3229.38 261.56ZM3238.35 297.05H3227.35C3227.35 310.198 3223.72 322.099 3216.36 333.025L3225.48 339.17L3234.6 345.315C3244.41 330.761 3249.35 314.582 3249.35 297.05H3238.35ZM3225.48 339.17L3216.36 333.025C3209.15 343.731 3198.05 352.817 3182.32 359.966L3186.87 369.98L3191.42 379.994C3210.01 371.543 3224.66 360.089 3234.6 345.315L3225.48 339.17ZM3186.87 369.98L3182.26 359.992C3167.26 366.916 3147.52 370.68 3122.52 370.68V381.68V392.68C3149.52 392.68 3172.68 388.644 3191.48 379.968L3186.87 369.98Z" fill="#CC0000" mask="url(#path-4-outside-1_15_62)"/>
<path d="M1611.4 578V508H1622.1L1652.7 559.1H1647.1L1677.2 508H1687.9L1688 578H1675.7L1675.6 527.3H1678.2L1652.6 570H1646.8L1620.8 527.3H1623.8V578H1611.4ZM1761.01 579C1751.41 579 1743.87 576.3 1738.41 570.9C1733.01 565.5 1730.31 557.7 1730.31 547.5V508H1743.31V547C1743.31 554.2 1744.84 559.433 1747.91 562.7C1751.04 565.967 1755.44 567.6 1761.11 567.6C1766.77 567.6 1771.14 565.967 1774.21 562.7C1777.27 559.433 1778.81 554.2 1778.81 547V508H1791.61V547.5C1791.61 557.7 1788.87 565.5 1783.41 570.9C1778.01 576.3 1770.54 579 1761.01 579ZM1833.81 578V508H1846.81V567H1883.41V578H1833.81ZM1925.33 578V519H1902.13V508H1961.53V519H1938.33V578H1925.33ZM1995.29 578V508H2008.29V578H1995.29ZM2051.22 578V508H2061.92L2092.52 559.1H2086.92L2117.02 508H2127.72L2127.82 578H2115.52L2115.42 527.3H2118.02L2092.42 570H2086.62L2060.62 527.3H2063.62V578H2051.22ZM2160.83 578L2192.33 508H2205.13L2236.73 578H2223.13L2196.03 514.9H2201.23L2174.23 578H2160.83ZM2175.33 561.8L2178.83 551.6H2216.63L2220.13 561.8H2175.33ZM2269.63 578V508H2298.43C2304.63 508 2309.93 509 2314.33 511C2318.8 513 2322.23 515.867 2324.63 519.6C2327.03 523.333 2328.23 527.767 2328.23 532.9C2328.23 538.033 2327.03 542.467 2324.63 546.2C2322.23 549.867 2318.8 552.7 2314.33 554.7C2309.93 556.633 2304.63 557.6 2298.43 557.6H2276.83L2282.63 551.7V578H2269.63ZM2315.43 578L2297.73 552.6H2311.63L2329.43 578H2315.43ZM2282.63 553.1L2276.83 546.9H2297.83C2303.57 546.9 2307.87 545.667 2310.73 543.2C2313.67 540.733 2315.13 537.3 2315.13 532.9C2315.13 528.433 2313.67 525 2310.73 522.6C2307.87 520.2 2303.57 519 2297.83 519H2276.83L2282.63 512.6V553.1ZM2399.18 579C2393.85 579 2388.88 578.133 2384.28 576.4C2379.75 574.6 2375.78 572.1 2372.38 568.9C2369.05 565.633 2366.45 561.8 2364.58 557.4C2362.71 553 2361.78 548.2 2361.78 543C2361.78 537.8 2362.71 533 2364.58 528.6C2366.45 524.2 2369.08 520.4 2372.48 517.2C2375.88 513.933 2379.85 511.433 2384.38 509.7C2388.91 507.9 2393.88 507 2399.28 507C2405.01 507 2410.25 508 2414.98 510C2419.71 511.933 2423.71 514.833 2426.98 518.7L2418.58 526.6C2416.05 523.867 2413.21 521.833 2410.08 520.5C2406.95 519.1 2403.55 518.4 2399.88 518.4C2396.21 518.4 2392.85 519 2389.78 520.2C2386.78 521.4 2384.15 523.1 2381.88 525.3C2379.68 527.5 2377.95 530.1 2376.68 533.1C2375.48 536.1 2374.88 539.4 2374.88 543C2374.88 546.6 2375.48 549.9 2376.68 552.9C2377.95 555.9 2379.68 558.5 2381.88 560.7C2384.15 562.9 2386.78 564.6 2389.78 565.8C2392.85 567 2396.21 567.6 2399.88 567.6C2403.55 567.6 2406.95 566.933 2410.08 565.6C2413.21 564.2 2416.05 562.1 2418.58 559.3L2426.98 567.3C2423.71 571.1 2419.71 574 2414.98 576C2410.25 578 2404.98 579 2399.18 579ZM2452.07 578L2483.57 508H2496.37L2527.97 578H2514.37L2487.27 514.9H2492.47L2465.47 578H2452.07ZM2466.57 561.8L2470.07 551.6H2507.87L2511.37 561.8H2466.57ZM2582.57 579C2577.11 579 2571.87 578.233 2566.87 576.7C2561.87 575.1 2557.91 573.067 2554.97 570.6L2559.47 560.5C2562.27 562.7 2565.74 564.533 2569.87 566C2574.01 567.467 2578.24 568.2 2582.57 568.2C2586.24 568.2 2589.21 567.8 2591.47 567C2593.74 566.2 2595.41 565.133 2596.47 563.8C2597.54 562.4 2598.07 560.833 2598.07 559.1C2598.07 556.967 2597.31 555.267 2595.77 554C2594.24 552.667 2592.24 551.633 2589.77 550.9C2587.37 550.1 2584.67 549.367 2581.67 548.7C2578.74 548.033 2575.77 547.267 2572.77 546.4C2569.84 545.467 2567.14 544.3 2564.67 542.9C2562.27 541.433 2560.31 539.5 2558.77 537.1C2557.24 534.7 2556.47 531.633 2556.47 527.9C2556.47 524.1 2557.47 520.633 2559.47 517.5C2561.54 514.3 2564.64 511.767 2568.77 509.9C2572.97 507.967 2578.27 507 2584.67 507C2588.87 507 2593.04 507.533 2597.17 508.6C2601.31 509.667 2604.91 511.2 2607.97 513.2L2603.87 523.3C2600.74 521.433 2597.51 520.067 2594.17 519.2C2590.84 518.267 2587.64 517.8 2584.57 517.8C2580.97 517.8 2578.04 518.233 2575.77 519.1C2573.57 519.967 2571.94 521.1 2570.87 522.5C2569.87 523.9 2569.37 525.5 2569.37 527.3C2569.37 529.433 2570.11 531.167 2571.57 532.5C2573.11 533.767 2575.07 534.767 2577.47 535.5C2579.94 536.233 2582.67 536.967 2585.67 537.7C2588.67 538.367 2591.64 539.133 2594.57 540C2597.57 540.867 2600.27 542 2602.67 543.4C2605.14 544.8 2607.11 546.7 2608.57 549.1C2610.11 551.5 2610.87 554.533 2610.87 558.2C2610.87 561.933 2609.84 565.4 2607.77 568.6C2605.77 571.733 2602.67 574.267 2598.47 576.2C2594.27 578.067 2588.97 579 2582.57 579Z" fill="black"/>
<path d="M968 466H3249" stroke="black" stroke-width="4"/>
<path d="M968 617H3249" stroke="black" stroke-width="4"/>
</svg>
